<svg xmlns="http://www.w3.org/2000/svg" version="1.1" xmlns:xlink="http://www.w3.org/1999/xlink" xmlns:svgjs="http://svgjs.dev/svgjs" width="2000" height="1247" viewBox="0 0 2000 1247"><g transform="matrix(1,0,0,1,-1.2121212121212466,0.504858299595071)"><svg viewBox="0 0 396 247" data-background-color="#ff5858" preserveAspectRatio="xMidYMid meet" height="1247" width="2000" xmlns="http://www.w3.org/2000/svg" xmlns:xlink="http://www.w3.org/1999/xlink"><g id="tight-bounds" transform="matrix(1,0,0,1,0.2400000000000091,-0.09999999999999432)"><svg viewBox="0 0 395.52 247.2" height="247.2" width="395.52"><g><svg></svg></g><g><svg viewBox="0 0 395.52 247.2" height="247.2" width="395.52"><g transform="matrix(1,0,0,1,75.54432000000001,100.34214537931034)"><svg viewBox="0 0 244.43135999999996 46.51570924137931" height="46.51570924137931" width="244.43135999999996"><g><svg viewBox="0 0 244.43135999999996 46.51570924137931" height="46.51570924137931" width="244.43135999999996"><g><svg viewBox="0 0 244.43135999999996 46.51570924137931" height="46.51570924137931" width="244.43135999999996"><g><svg viewBox="0 0 244.43135999999996 46.51570924137931" height="46.51570924137931" width="244.43135999999996"><g id="textblocktransform"><svg viewBox="0 0 244.43135999999996 46.51570924137931" height="46.51570924137931" width="244.43135999999996" id="textblock"><g><svg viewBox="0 0 244.43135999999996 46.51570924137931" height="46.51570924137931" width="244.43135999999996"><g transform="matrix(1,0,0,1,0,0)"><svg width="244.43135999999996" viewBox="-0.15000000596046448 -43.650001525878906 231.989990234375 44.150001525878906" height="46.51570924137931" data-palette-color="#ffffff"><path d="M43.5-2L42.5 0 27.3 0 27.3-1.55 32-5.2 28.15-14.45 11.35-14.45 7.25-5 16.05-2 15.05 0-0.15 0-0.15-1.55 4.55-5.25 18.7-37.7 23.9-40.25 38.5-5.05 43.5-2ZM27.25-16.7L19.95-34.25 12.35-16.7 27.25-16.7ZM64.3-27Q65.95-27 67.2-26.1 68.45-25.2 69.15-23.6L69.15-23.6 65.85-19.45 63.95-19.45Q63.75-20.7 63.22-21.23 62.7-21.75 61.8-21.75L61.8-21.75Q60.7-21.75 59.47-21.18 58.25-20.6 56.7-19L56.7-19 56.7-4.1 63.7-1.95 62.7 0.05 46.25 0.05 46.25-1.5 50.7-5 50.7-19.15 46.25-21.75 46.25-23.3 54.8-27.5 56.35-21.35 61.55-26.65Q62.6-27.05 64.3-27.05L64.3-27.05 64.3-27ZM87-27.05Q89.05-27.05 91.77-26.48 94.5-25.9 95.7-25.2L95.7-25.2 95.7-17.5 93.8-17.5Q91.85-20 89.32-21.43 86.8-22.85 84.1-22.85L84.1-22.85Q81.8-22.85 80.62-20.8 79.45-18.75 79.45-14.8L79.45-14.8Q79.45-10.1 81.5-6.93 83.55-3.75 87.35-3.75L87.35-3.75Q90.2-3.75 95.45-7.85L95.45-7.85 96.95-5.95 89.25 0.1Q87.25 0.5 84.45 0.5L84.45 0.5Q81.15 0.5 78.52-1.23 75.9-2.95 74.42-5.9 72.95-8.85 72.95-12.4L72.95-12.4Q72.95-16.25 75.12-19.65 77.3-23.05 80.6-25.05 83.9-27.05 87-27.05L87-27.05ZM133.79-2L132.79 0 123.29 0 123.29-16.85Q123.29-19.6 122.44-20.7 121.59-21.8 119.39-21.8L119.39-21.8Q117.74-21.8 116.12-21.2 114.49-20.6 112.29-18.9L112.29-18.9 112.29-3.75 116.79-2 115.79 0 101.84 0 101.84-1.55 106.29-5.05 106.29-35.8 101.84-38.9 101.84-40.45 110.39-43.65 112.29-43.65 112.29-21.25 119.14-26.65Q120.19-27.05 121.89-27.05L121.89-27.05Q125.29-27.05 127.29-24.98 129.29-22.9 129.29-19.35L129.29-19.35 129.29-3.75 133.79-2ZM164.84-2L163.84 0 154.34 0 154.34-4.35 148.69 0.1Q147.69 0.5 146.19 0.5L146.19 0.5Q141.89 0.5 139.97-1.65 138.04-3.8 138.04-6.8L138.04-6.8Q138.04-8.6 139.34-10.35 140.64-12.1 143.04-13.65L143.04-13.65 154.34-13.65 154.34-16.85Q154.34-20.1 152.62-21.45 150.89-22.8 147.89-22.8L147.89-22.8Q144.79-22.8 140.29-19.05L140.29-19.05 138.79-20.95 145.99-26.65Q147.99-27.05 150.79-27.05L150.79-27.05Q155.34-27.05 157.84-24.83 160.34-22.6 160.34-18.35L160.34-18.35 160.34-3.75 164.84-2ZM147.79-3.75Q150.84-3.75 154.34-6.55L154.34-6.55 154.34-11.6 145.49-11.6Q144.84-10.8 144.57-10 144.29-9.2 144.29-8.25L144.29-8.25Q144.29-6.4 145.24-5.08 146.19-3.75 147.79-3.75L147.79-3.75ZM200.79-1.95L199.79 0.05 190.29 0.05 190.29-16.8Q190.29-19.55 189.44-20.65 188.59-21.75 186.39-21.75L186.39-21.75Q184.74-21.75 183.11-21.15 181.49-20.55 179.29-18.85L179.29-18.85 179.29-3.7 183.79-1.95 182.79 0.05 168.84 0.05 168.84-1.5 173.29-5 173.29-19.15 168.84-21.75 168.84-23.3 177.39-27.5 179.04-21 186.14-26.65Q187.19-27.05 188.89-27.05L188.89-27.05Q192.29-27.05 194.29-24.98 196.29-22.9 196.29-19.35L196.29-19.35 196.29-3.75 200.79-1.95ZM231.84-2L230.84 0 221.34 0 221.34-4.35 215.69 0.1Q214.69 0.5 213.19 0.5L213.19 0.5Q208.89 0.5 206.96-1.65 205.04-3.8 205.04-6.8L205.04-6.8Q205.04-8.6 206.34-10.35 207.64-12.1 210.04-13.65L210.04-13.65 221.34-13.65 221.34-16.85Q221.34-20.1 219.61-21.45 217.89-22.8 214.89-22.8L214.89-22.8Q211.79-22.8 207.29-19.05L207.29-19.05 205.79-20.95 212.99-26.65Q214.99-27.05 217.79-27.05L217.79-27.05Q222.34-27.05 224.84-24.83 227.34-22.6 227.34-18.35L227.34-18.35 227.34-3.75 231.84-2ZM214.79-3.75Q217.84-3.75 221.34-6.55L221.34-6.55 221.34-11.6 212.49-11.6Q211.84-10.8 211.56-10 211.29-9.2 211.29-8.25L211.29-8.25Q211.29-6.4 212.24-5.08 213.19-3.75 214.79-3.75L214.79-3.75Z" opacity="1" transform="matrix(1,0,0,1,0,0)" fill="#ffffff" class="undefined-text-0" data-fill-palette-color="primary" id="text-0"></path></svg></g></svg></g></svg></g></svg></g></svg></g></svg></g></svg></g><g><path d="M0 123.6c0-68.262 55.338-123.6 123.6-123.6 58.365 0 107.281 40.454 120.239 94.852h-2.158c-12.914-53.229-60.882-92.754-118.081-92.755-67.104 0-121.503 54.399-121.503 121.503 0 67.104 54.399 121.503 121.503 121.503 57.2 0 105.168-39.526 118.081-92.755h2.158c-12.958 54.398-61.874 94.852-120.239 94.852-68.262 0-123.6-55.338-123.6-123.6z" fill="#ffffff" stroke="transparent" data-fill-palette-color="tertiary"></path></g></svg></g><defs></defs></svg><rect width="395.52" height="247.2" fill="none" stroke="none" visibility="hidden"></rect></g></svg></g></svg>